<?xml version="1.0" standalone="no"?>
<!DOCTYPE svg PUBLIC "-//W3C//DTD SVG 20010904//EN" "http://www.w3.org/TR/2001/REC-SVG-20010904/DTD/svg10.dtd">
<svg
  version="1.0"
  xmlns="http://www.w3.org/2000/svg"
  width="956.000000pt"
  height="861.000000pt"
  viewBox="0 0 956.000000 861.000000"
  preserveAspectRatio="xMidYMid meet"
>
  <g
    transform="translate(0.000000,861.000000) scale(0.100000,-0.100000)"
    fill="#f6f4f0"
    stroke="none"
  >
    <path
      d="M4707 8569 c-86 -45 -204 -307 -269 -599 -19 -86 -23 -132 -22 -255
      1 -132 4 -161 28 -238 24 -80 25 -90 11 -111 -14 -21 -27 -24 -148 -34 -587
      -53 -1072 -204 -1522 -475 -55 -33 -214 -136 -353 -228 -139 -92 -301 -192
      -360 -222 -95 -49 -238 -107 -262 -107 -5 0 -14 17 -21 38 -16 49 -73 135
      -111 167 -69 58 -106 70 -213 70 -92 0 -104 -2 -153 -29 -68 -38 -117 -92
      -155 -174 -86 -184 14 -405 211 -463 41 -12 42 -13 42 -53 -1 -39 -3 -42 -49
      -64 -69 -32 -104 -86 -109 -166 -3 -49 0 -71 16 -103 24 -46 81 -100 117 -109
      17 -4 25 -13 25 -28 0 -11 -235 -531 -522 -1153 l-523 -1133 -174 0 -174 0 6
      -52 c20 -169 184 -346 437 -473 427 -215 1144 -270 1682 -130 445 115 727 318
      793 570 8 33 15 65 15 72 0 10 -45 13 -192 15 l-191 3 -77 165 c-43 91 -200
      428 -350 750 -150 322 -353 757 -451 968 -99 211 -179 390 -179 397 0 8 23 26
      52 42 37 20 61 42 83 77 68 111 16 258 -108 305 -25 10 -28 15 -25 47 3 35 6
      38 53 51 28 8 100 23 160 34 203 36 410 112 595 219 41 23 197 123 345 220
      149 98 322 207 385 242 367 205 743 322 1198 372 205 23 212 22 240 -20 l22
      -36 -24 -68 c-116 -321 -70 -805 98 -1029 l26 -35 0 -1531 0 -1531 -59 -52
      c-43 -37 -69 -72 -93 -119 -30 -62 -33 -76 -33 -158 0 -77 4 -98 28 -150 15
      -33 35 -67 43 -76 14 -16 13 -24 -10 -88 -40 -111 -59 -232 -60 -381 -1 -74 3
      -162 7 -196 l8 -60 -83 -13 c-205 -30 -440 -102 -603 -184 -242 -120 -405
      -300 -422 -462 l-6 -53 -60 -11 c-75 -13 -133 -41 -191 -92 -55 -48 -107 -149
      -114 -219 l-5 -50 -66 0 c-182 0 -313 -89 -298 -202 3 -21 13 -50 22 -64 23
      -36 99 -81 156 -93 70 -15 3978 -15 4048 0 62 13 135 59 161 101 40 65 17 149
      -54 197 -59 40 -99 52 -202 58 l-92 6 -6 51 c-8 72 -58 167 -112 215 -58 51
      -116 79 -191 92 l-60 11 -6 53 c-12 117 -104 248 -249 356 -177 131 -483 246
      -776 290 l-82 12 7 66 c12 98 8 306 -7 391 -7 41 -25 115 -41 164 -26 79 -28
      91 -15 105 8 9 28 43 43 76 24 52 28 73 28 150 0 82 -3 96 -33 158 -23 45 -50
      82 -87 114 l-55 48 0 1538 0 1538 25 33 c13 18 40 66 59 107 112 245 126 623
      32 903 l-26 76 23 35 c26 41 34 42 200 20 314 -41 616 -127 902 -257 150 -69
      306 -154 595 -328 135 -81 299 -177 365 -213 241 -133 488 -220 695 -247 52
      -6 120 -20 150 -30 51 -17 55 -21 58 -53 3 -32 0 -36 -42 -57 -159 -77 -164
      -289 -8 -373 29 -16 52 -34 52 -42 0 -7 -26 -68 -59 -136 -32 -68 -251 -529
      -486 -1024 -235 -495 -452 -951 -481 -1013 l-53 -112 -186 0 c-110 0 -185 -4
      -185 -10 0 -37 28 -126 57 -182 115 -220 442 -405 876 -492 246 -51 626 -62
      898 -26 419 54 753 190 945 385 82 82 139 188 150 273 l7 52 -175 0 -174 0
      -529 1125 c-292 619 -531 1139 -533 1154 -3 23 2 30 22 35 38 9 97 65 117 111
      48 104 4 221 -103 276 -34 18 -38 23 -38 59 0 31 4 40 18 40 34 0 138 59 179
      101 23 24 54 70 69 102 24 53 26 68 22 145 -5 97 -31 162 -93 230 -57 64 -127
      95 -222 100 -75 4 -87 2 -145 -25 -83 -39 -149 -107 -184 -189 -15 -35 -30
      -64 -35 -64 -4 0 -49 14 -101 31 -147 49 -409 183 -715 367 -520 313 -817 445
      -1223 547 -149 37 -317 68 -484 86 -93 11 -110 16 -123 35 -12 20 -12 29 7 86
      33 101 46 252 32 380 -23 207 -112 485 -206 641 -65 109 -142 142 -229 96z
      m-3151 -2873 c30 -30 34 -40 34 -86 0 -44 -4 -56 -29 -81 -30 -29 -51 -37 -51
      -19 0 15 -78 12 -83 -2 -2 -8 -17 1 -40 24 -29 28 -37 44 -37 72 0 79 46 126
      123 126 42 0 54 -5 83 -34z m6598 24 c56 -21 82 -110 51 -170 -18 -34 -57 -60
      -63 -41 -5 15 -79 14 -85 -1 -8 -22 -61 26 -75 67 -33 101 67 185 172 145z
      m-6394 -1065 c128 -275 343 -734 477 -1020 133 -285 243 -523 243 -527 0 -5
      -217 -7 -482 -6 l-483 3 -3 1035 c-1 569 2 1030 6 1025 5 -6 114 -235 242
      -510z m6295 -1542 c-3 -10 -110 -13 -485 -13 -267 0 -480 4 -480 9 0 5 25 62
      56 127 31 66 118 252 194 414 173 370 654 1396 689 1470 l26 55 3 -1025 c1
      -564 0 -1031 -3 -1037z m-6625 1017 l0 -1030 -486 0 c-385 0 -485 3 -481 13 3
      6 77 165 165 352 143 305 265 566 639 1365 64 135 124 264 134 288 10 23 21
      42 24 42 3 0 5 -463 5 -1030z m6848 755 c66 -143 279 -597 472 -1010 193 -412
      354 -756 357 -762 4 -10 -96 -13 -481 -13 l-486 0 0 1032 c0 568 4 1028 8
      1023 5 -6 63 -127 130 -270z"
    />
  </g>
</svg>